<mxfile host="app.diagrams.net" modified="2024-04-15T13:27:09.702Z" agent="Mozilla/5.0 (Windows NT 10.0; Win64; x64) AppleWebKit/537.36 (KHTML, like Gecko) Chrome/123.0.0.0 Safari/537.36" version="24.2.2" etag="Hqxvy5R2UXS54SW8Ya_O" type="github">
  <diagram name="Trang-1" id="EUTHaJk-HCngdbKTFqFq">
    <mxGraphModel>
      <root>
        <mxCell id="0" />
        <mxCell id="1" parent="0" />
      </root>
    </mxGraphModel>
  </diagram>
</mxfile>
